<svg width="88" height="40" viewBox="0 0 88 40" fill="none" xmlns="http://www.w3.org/2000/svg">
<g clip-path="url(#clip0)">
<path d="M51.4902 15.5373H53.5804V17.8205C53.1171 18.5239 52.4524 19.0701 51.6737 19.3875C50.8951 19.7048 50.039 19.7784 49.2179 19.5985C48.3968 19.4186 47.6491 18.9938 47.0732 18.3797C46.4974 17.7656 46.1202 16.9911 45.9913 16.158C45.8624 15.3249 45.9878 14.4722 46.3511 13.7119C46.7143 12.9517 47.2984 12.3194 48.0265 11.8984C48.7546 11.4773 49.5927 11.2871 50.4306 11.3528C51.2685 11.4184 52.067 11.7369 52.7211 12.2663L52.4192 12.6018C52.1589 12.3781 51.8629 12.2001 51.5436 12.0753C50.6216 11.6924 49.5857 11.6924 48.6637 12.0753C48.2212 12.2676 47.8168 12.5383 47.4699 12.8744C47.1387 13.2193 46.8693 13.6189 46.6733 14.0556C46.4843 14.516 46.3872 15.0091 46.3876 15.507C46.3839 15.9961 46.4777 16.4809 46.6636 16.933C46.8495 17.3852 47.1236 17.7954 47.4699 18.1397C47.8122 18.4849 48.2175 18.761 48.6637 18.9528C49.5857 19.3356 50.6216 19.3356 51.5436 18.9528C51.984 18.7592 52.3836 18.4833 52.7211 18.1397C52.862 17.9918 52.9946 17.8363 53.1183 17.6737V15.9846H51.4902V15.5373Z" fill="#FFB65E"/>
<path d="M62.3967 15.4884C62.3967 16.3178 62.1515 17.1286 61.6922 17.8182C61.2328 18.5079 60.5799 19.0454 59.816 19.3628C59.0521 19.6802 58.2115 19.7632 57.4006 19.6014C56.5897 19.4396 55.8448 19.0402 55.2601 18.4537C54.6754 17.8672 54.2773 17.12 54.116 16.3065C53.9547 15.493 54.0375 14.6498 54.3539 13.8836C54.6703 13.1173 55.2061 12.4623 55.8936 12.0015C56.5811 11.5407 57.3893 11.2948 58.2162 11.2948C59.3249 11.2948 60.3883 11.7366 61.1723 12.5231C61.9563 13.3095 62.3967 14.3762 62.3967 15.4884ZM61.9508 15.4884C61.9462 14.7521 61.7244 14.0337 61.3133 13.4238C60.9022 12.8139 60.3202 12.3397 59.6408 12.0611C58.9614 11.7826 58.215 11.7121 57.4957 11.8585C56.7764 12.005 56.1164 12.3618 55.599 12.8841C55.0817 13.4063 54.73 14.0705 54.5885 14.793C54.447 15.5154 54.5219 16.2637 54.8039 16.9435C55.0858 17.6233 55.5621 18.2041 56.1727 18.6127C56.7833 19.0213 57.5008 19.2393 58.2348 19.2393C58.7243 19.2378 59.2087 19.1396 59.6604 18.9502C60.1121 18.7609 60.5221 18.4842 60.8672 18.1359C61.2123 17.7876 61.4856 17.3745 61.6715 16.9202C61.8574 16.466 61.9523 15.9794 61.9508 15.4884Z" fill="#FFB65E"/>
<path d="M52.368 23.9967C52.368 25.0376 51.957 26.036 51.2248 26.7735C50.4927 27.5109 49.4991 27.9274 48.4616 27.9317H47.6649V28.619H45.9858V20.0781H48.4592C49.4948 20.0805 50.4872 20.4941 51.2196 21.2284C51.9521 21.9627 52.365 22.958 52.368 23.9967ZM50.8375 23.9967C50.8338 23.3658 50.5823 22.7617 50.1376 22.3155C49.6928 21.8693 49.0906 21.6171 48.4616 21.6134H47.6649V26.3987H48.4616C49.0934 26.3938 49.6977 26.1386 50.1427 25.6887C50.5878 25.2387 50.8375 24.6306 50.8375 23.9967Z" fill="#FFB65E"/>
<path d="M61.1494 28.619H59.4725L59.1961 27.9317C58.5065 28.3857 57.6984 28.6248 56.8736 28.619C56.0578 28.625 55.2588 28.3865 54.579 27.9341L54.3026 28.6214H52.6257L56.0445 20.0804H57.7213L61.1494 28.619ZM58.5946 26.4477L57.3892 23.4423L56.8852 22.1842L55.1921 26.4453C55.6692 26.8381 56.268 27.0515 56.8852 27.0488C57.5063 27.0518 58.1093 26.8394 58.5923 26.4477H58.5946Z" fill="#FFB65E"/>
<path d="M68.4212 28.619H66.6793L66.029 27.5077C65.4863 27.7911 64.8826 27.9367 64.2708 27.9317H63.7018V28.619H62.025V20.078H64.2708C65.0227 20.0753 65.7593 20.29 66.3927 20.6964C67.026 21.1028 67.5291 21.6837 67.8418 22.3696C68.1545 23.0555 68.2635 23.8172 68.1558 24.5636C68.0481 25.31 67.7281 26.0094 67.2344 26.5781L68.4212 28.619ZM64.2708 26.3987C64.9034 26.3987 65.5101 26.1467 65.9574 25.6979C66.4048 25.2492 66.6561 24.6406 66.6561 24.0061C66.6561 23.3715 66.4048 22.7629 65.9574 22.3142C65.5101 21.8655 64.9034 21.6134 64.2708 21.6134H63.7018V26.3987H64.2708Z" fill="#FFB65E"/>
<path d="M69.6753 28.619V20.0781H71.3522V28.619H69.6753Z" fill="#FFB65E"/>
<path d="M78.898 21.7438H76.4106V28.619H74.7338V21.7438H72.2301V20.0617H78.8887L78.898 21.7438Z" fill="#FFB65E"/>
<path d="M88.0001 20.0617L84.8415 27.2584V28.6307H83.1646V27.2584L79.9897 20.0617H81.6666L83.9891 25.3527L86.3325 20.0617H88.0001Z" fill="#FFB65E"/>
<path d="M18.7729 8.99062H20.9328V11.1829H18.7729V8.99062ZM21.3276 6.56532H18.4849V8.50137H21.3276V6.56532ZM21.5994 4.51046H18.1435V6.15994H21.6133V4.51046H21.5994ZM21.9408 2.45559H17.8833V3.96063H21.9547V2.45559H21.9408ZM22.0267 0.915604H17.8021V1.93838H22.043V0.913274L22.0267 0.915604ZM22.2961 0H17.5164V0.479935H22.2961V0ZM21.1604 11.2365L23.2344 11.7957L23.8011 9.67791L21.7457 9.11876L21.1604 11.2365ZM24.8184 7.44132L22.0639 6.70045L21.5622 8.56427L24.3214 9.31912L24.8184 7.44132ZM25.6243 5.5309L22.2752 4.62694L21.8479 6.21818L25.2039 7.13146L25.6243 5.5309ZM26.4766 3.63679L22.5516 2.57907L22.1544 4.03518L26.0795 5.09523L26.4766 3.63679ZM26.9597 2.17136L22.8791 1.06704L22.612 2.06186L26.7089 3.15452L26.9597 2.17136ZM27.4428 1.35593L22.8396 0.111829L22.7211 0.577786L27.3337 1.82189L27.4428 1.35593ZM23.4806 11.9028L25.3549 12.9536L26.4186 11.0385L24.5443 9.98777L23.4806 11.9028ZM27.9491 9.11876L25.4687 7.72089L24.5188 9.41464L26.9992 10.8125L27.9491 9.11876ZM29.1963 7.4553L26.177 5.76155L25.3851 7.20368L28.4043 8.89743L29.1963 7.4553ZM30.4923 5.82445L26.9411 3.84647L26.2072 5.16512L29.756 7.15243L30.4923 5.82445ZM31.3144 4.51977L27.617 2.45093L27.1153 3.34324L30.8128 5.41208L31.3144 4.51977ZM31.9833 3.8488L27.8214 1.51902L27.5891 1.93838L31.7511 4.26816L31.9833 3.8488ZM12.8272 14.5658L14.3601 13.0561L12.8272 11.4881L11.2944 12.9978L12.8272 14.5658ZM11.4198 9.48221L9.39224 11.4695L10.7463 12.8511L12.7738 10.8638L11.4198 9.48221ZM10.1865 7.81641L7.71306 10.251L8.87432 11.4299L11.3408 8.99528L10.1865 7.81641ZM8.99741 6.11101L6.08731 8.96733L7.14173 10.0437L10.0518 7.1897L8.99741 6.11101ZM7.98248 4.94612L4.95856 7.92125L5.6739 8.65048L8.69316 5.66836L7.98248 4.94612ZM7.51797 4.11439L4.12014 7.46928L4.4569 7.81408L7.871 4.46852L7.51797 4.11439ZM14.5691 12.921L16.4411 11.8632L15.3657 9.95282L13.4961 11.0105L14.5691 12.921ZM14.5273 7.64401L12.0538 9.04188L13.0061 10.717L15.4795 9.31912L14.5273 7.64401ZM13.7679 5.71262L10.7486 7.42268L11.5591 8.85317L14.5784 7.14311L13.7679 5.71262ZM13.0595 3.75328L9.5223 5.75922L10.2609 7.07321L13.8004 5.0696L13.0595 3.75328ZM12.379 2.35541L8.69084 4.45221L9.19251 5.34219L12.8807 3.24538L12.379 2.35541ZM12.1467 1.4235L7.99409 3.79521L8.22634 4.21457L12.3929 1.86382L12.1467 1.4235ZM16.6896 11.7654L18.7613 11.1969L18.1783 9.10012L16.1066 9.67092L16.6896 11.7654ZM17.9298 6.63987L15.1916 7.38773L15.7025 9.25156L18.4384 8.52001L17.9298 6.63987ZM17.6511 4.57569L14.3183 5.49362L14.7549 7.08486L18.0993 6.16693L17.6511 4.57569ZM17.4397 2.50451L13.531 3.5832L13.9351 5.03699L17.8462 3.96063L17.4397 2.50451ZM17.1262 0.994816L13.0432 2.1201L13.3126 3.11492L17.384 2.00361L17.1262 0.994816ZM17.1262 0.0465956L12.5207 1.314L12.6484 1.77995L17.2539 0.510222L17.1262 0.0465956ZM28.7155 18.8712L28.7434 21.0449L30.9243 21.0216L30.8894 18.8712H28.7155ZM33.3466 21.3781L33.3141 18.5287L31.3841 18.5497L31.4143 21.399L33.3466 21.3781ZM35.3974 21.6413L35.3603 18.1723L33.7159 18.1909L33.7531 21.667L35.3974 21.6413ZM37.4482 21.9605L37.4017 17.8834L35.8968 17.8997L35.9409 21.9768L37.4482 21.9605ZM38.9857 22.0374L38.9369 17.7879L37.9173 17.7995L37.9661 22.0467L38.9857 22.0374ZM39.8984 22.2844L39.8474 17.4943H39.3689L39.4223 22.2844H39.9008H39.8984ZM28.6877 21.2779L28.1535 23.3747L30.2647 23.9338L30.8012 21.837L28.6877 21.2779ZM32.5152 24.9077L33.2119 22.1492L31.3539 21.667L30.6572 24.4254L32.5152 24.9077ZM34.4289 25.7021L35.2929 22.3356L33.709 21.9232L32.8473 25.2921L34.4289 25.7021ZM36.3264 26.5455L37.3344 22.5989L35.8782 22.2238L34.8656 26.1728L36.3264 26.5455ZM37.7989 27.0115L38.8533 22.8994L37.857 22.6431L36.8025 26.7575L37.7989 27.0115ZM38.6164 27.4774L39.8055 22.8388L39.341 22.72L38.1519 27.3609L38.6164 27.4774ZM27.9654 23.5168L26.9411 25.4202L28.8642 26.4686L29.8884 24.5769L27.9654 23.5168ZM30.7942 27.969L32.1505 25.4668L30.4667 24.5349L29.1104 27.0394L30.7942 27.969ZM32.4594 29.2015L34.1154 26.1471L32.6708 25.3527L31.0125 28.4233L32.4594 29.2015ZM34.0852 30.4828L36.0245 26.9043L34.703 26.1844L32.7637 29.7629L34.0852 30.4828ZM35.3951 31.2913L37.4157 27.5636L36.5192 27.0744L34.4986 30.802L35.3951 31.2913ZM36.0733 31.9529L38.3517 27.7454L37.929 27.5124L35.6506 31.72L36.0733 31.9529ZM25.3642 12.9606L26.8854 14.4819L28.4276 12.928L26.9063 11.4159L25.3642 12.9606ZM30.4249 11.4951L28.4113 9.48454L27.0503 10.8568L29.0639 12.8674L30.4249 11.4951ZM32.0669 10.251L29.6097 7.78613L28.4485 8.95102L30.9057 11.4159L32.0669 10.251ZM33.7531 9.03722L30.8708 6.14829L29.8118 7.21766L32.6917 10.0949L33.7531 9.03722ZM34.8981 8.00513L31.8974 4.99505L31.1774 5.71961L34.1735 8.72037L34.8981 8.00513ZM35.7226 7.53917L32.3387 4.16099L31.9996 4.50347L35.3812 7.88398L35.7226 7.53917ZM27.0201 14.6776L28.1024 16.5414L29.9953 15.4418L28.9199 13.578L27.0201 14.6776ZM32.2829 14.5844L30.8615 12.1149L29.1847 13.0887L30.6084 15.5536L32.2829 14.5844ZM34.1967 13.8016L32.4594 10.7939L31.0357 11.6209L32.7707 14.631L34.1967 13.8016ZM36.1406 13.0677L34.1061 9.53812L32.8032 10.293L34.8261 13.8272L36.1406 13.0677ZM37.5109 12.3688L35.3904 8.69241L34.5056 9.20496L36.6214 12.8953L37.5109 12.3688ZM38.426 12.1358L36.0338 7.99115L35.6181 8.22412L38.0102 12.3688L38.426 12.1358ZM28.1837 16.7954L28.7806 18.8712L30.8894 18.2701L30.2949 16.199L28.1837 16.7954ZM33.3095 17.9882L32.5291 15.2484L30.6711 15.7819L31.4491 18.5194L33.3095 17.9882ZM35.3603 17.7063L34.4057 14.3631L32.8194 14.8291L33.7717 18.1723L35.3603 17.7063ZM37.4226 17.4734L36.3055 13.5547L34.8586 13.9694L35.9757 17.8881L37.4226 17.4734ZM38.923 17.1309L37.7617 13.0468L36.7816 13.3287L37.9429 17.4128L38.923 17.1309ZM39.8683 17.1309L38.5537 12.5202L38.0892 12.653L39.4038 17.2567L39.8683 17.1309ZM21.0559 28.8287H18.9076V31.0164H21.0605V28.8287H21.0559ZM18.5011 33.4417H21.3671V31.4986H18.5127V33.4347L18.5011 33.4417ZM18.2178 35.4965H21.6969V33.847H18.2317V35.4989L18.2178 35.4965ZM17.8833 37.5467H21.957V36.037H17.8833V37.5467ZM17.7997 39.0867H22.043V38.064H17.809V39.0867H17.7997ZM17.5443 40H22.3286V39.5201H17.5559L17.5443 40ZM18.6614 28.7635L16.5711 28.202L16.0253 30.3221L18.0993 30.8789L18.6614 28.7635ZM15.0174 32.5633L17.7603 33.2995L18.2596 31.4357L15.5167 30.6972L15.0174 32.5633ZM14.2138 34.4808L17.5628 35.3824L17.9879 33.7818L14.6318 32.8848L14.2138 34.4808ZM13.3544 36.3772L17.2795 37.4303L17.6766 35.9741L13.7493 34.9118L13.3544 36.3772ZM12.8737 37.8426L16.9543 38.9376L17.2168 37.9428L13.1268 36.8431L12.8737 37.8426ZM12.3906 38.658L17.0031 39.8975L17.1285 39.4315L12.5183 38.1828L12.3906 38.658ZM16.4434 28.0948L14.5668 27.0464L13.5054 28.9638L15.382 30.0122L16.4434 28.0948ZM11.9772 30.8766L14.46 32.2744L15.4029 30.5947L12.9225 29.1968L11.9772 30.8766ZM10.7323 32.5331L13.7516 34.2245L14.5436 32.7823L11.5243 31.0933L10.7323 32.5331ZM9.44101 34.1639L12.9921 36.1512L13.7237 34.8325L10.1703 32.8499L9.44101 34.1639ZM8.62117 35.4686L12.3093 37.5467L12.804 36.6521L9.10425 34.5856L8.62117 35.4686ZM7.95228 36.1535L12.1328 38.4833L12.3651 38.0616L8.18454 35.7318L7.95228 36.1535ZM26.9249 25.4179L25.3944 26.9299L26.9272 28.4955L28.4577 26.9835L26.9249 25.4179ZM28.3347 30.5085L30.3576 28.5095L29.0035 27.1303L26.9806 29.1223L28.3347 30.5085ZM29.5702 32.1719L32.0507 29.7327L30.8894 28.5561L28.4159 30.9861L29.5702 32.1719ZM30.7594 33.8773L33.6555 31.0187L32.6011 29.9423L29.7026 32.8033L30.7594 33.8773ZM31.7766 35.0422L34.7959 32.0601L34.0806 31.3309L31.0613 34.313L31.7766 35.0422ZM32.2411 35.874L35.6459 32.5144L35.3022 32.1626L31.8974 35.5222L32.2411 35.874ZM25.3595 27.0744L23.5015 28.1344L24.5768 30.0425L26.4348 28.9825L25.3595 27.0744ZM25.406 32.3513L27.8771 30.9535L26.9272 29.269L24.4537 30.6669L25.406 32.3513ZM26.1677 34.2827L29.187 32.5703L28.3765 31.1329L25.3572 32.8452L26.1677 34.2827ZM26.8784 36.2397L30.4156 34.2338L29.6771 32.9221L26.1399 34.9281L26.8784 36.2397ZM27.5613 37.6376L31.2471 35.5408L30.7454 34.6508L27.0596 36.7476L27.5613 37.6376ZM27.7935 38.5695L31.9555 36.2118L31.7232 35.7831L27.5404 38.1152L27.7935 38.5695ZM23.1508 28.2043L21.0814 28.7774L21.6621 30.8929L23.7268 30.3314L23.1508 28.2043ZM21.9152 33.3298L24.6535 32.5727L24.1402 30.7088L21.402 31.4637L21.9152 33.3298ZM22.1846 35.3847L25.5267 34.4528L25.0831 32.8802L21.7387 33.8121L22.1846 35.3847ZM22.3983 37.4559L26.3164 36.3725L25.9192 34.9188L22.0012 36.0091L22.3983 37.4559ZM22.7235 38.9632L26.8041 37.8356L26.5324 36.8408L22.4517 37.9754L22.7235 38.9632ZM22.7235 39.9115L27.3267 38.6417L27.1989 38.1758L22.598 39.4548L22.7235 39.9115ZM11.2038 21.201L11.1783 19.046L8.99741 19.0716L9.02296 21.2243L11.2038 21.201ZM6.55878 18.6988L6.59361 21.5481L8.52362 21.5248L8.49111 18.6755L6.55878 18.6988ZM4.49406 18.4495L4.53587 21.9256L6.1895 21.8999L6.14769 18.4239L4.49406 18.4495ZM2.44328 18.1304L2.49206 22.2075L3.99704 22.1865L3.94827 18.1024L2.44328 18.1304ZM0.90578 18.0628L0.956875 22.3123L1.97646 22.3007L1.93465 18.0418L0.90578 18.0628ZM0 17.8065L0.0580628 22.5989H0.5365L0.478438 17.8065H0ZM11.2131 18.8875L11.7473 16.7907L9.62914 16.2479L9.09728 18.3447L11.2131 18.8875ZM7.38327 15.2647L6.68651 18.0278L8.55846 18.5078L9.25521 15.747L7.38327 15.2647ZM5.46952 14.4703L4.61019 17.8368L6.19646 18.2468L7.08134 14.8826L5.46952 14.4703ZM3.57202 13.6292L2.55476 17.5782L4.01098 17.951L5.01895 14.002L3.57202 13.6292ZM2.1042 13.1633L1.05442 17.28L2.04613 17.5339L3.09591 13.4195L2.1042 13.1633ZM1.29596 12.6973L0.106836 17.3382L0.571338 17.457L1.76046 12.8138L1.29596 12.6973ZM11.8634 16.5601L12.8853 14.666L10.9623 13.6199L9.94035 15.514L11.8634 16.5601ZM9.03225 12.1149L7.66429 14.617L9.35973 15.549L10.7138 13.0444L9.03225 12.1149ZM7.36701 10.8801L5.71338 13.9367L7.16031 14.7312L8.81161 11.6745L7.36701 10.8801ZM5.74125 9.60102L3.79266 13.1772L5.10953 13.8948L7.0465 10.3163L5.74125 9.60102ZM4.41277 8.79026L2.39451 12.5179L3.29332 13.0048L5.31159 9.27719L4.41277 8.79026ZM3.73228 8.12394L1.46318 12.3362L1.88588 12.5692L4.16194 8.35925L3.73228 8.12394ZM14.5598 27.0255L13.0363 25.5064L11.4941 27.0627L13.0247 28.5911L14.5598 27.0255ZM9.50604 28.4979L11.522 30.5201L12.883 29.1456L10.867 27.1373L9.50604 28.4979ZM7.86171 29.7536L10.3212 32.2046L11.4825 31.0397L9.02296 28.6004L7.86171 29.7536ZM6.17556 30.9861L9.0578 33.8657L10.1192 32.7963L7.23695 29.919L6.17556 30.9861ZM5.03289 32.0205L8.03589 35.0143L8.75587 34.2874L5.75054 31.2959L5.03289 32.0205ZM4.21072 32.4865L7.59694 35.8786L7.9337 35.5361L4.54748 32.151L4.21072 32.4865ZM12.8272 25.3946L11.7496 23.5308L9.85442 24.6281L10.9321 26.4919L12.8272 25.3946ZM7.56442 25.4994L8.98812 27.9644L10.6441 27.0022L9.22038 24.5466L7.56442 25.4994ZM5.65067 26.2823L7.39024 29.29L8.81394 28.4606L7.07902 25.4552L5.65067 26.2823ZM3.71602 27.0255L5.75519 30.5504L7.05579 29.7932L5.01663 26.2683L3.71602 27.0255ZM2.32251 27.7244L4.44761 31.3985L5.33017 30.8859L3.21668 27.2072L2.32251 27.7244ZM1.40744 27.9574L3.80428 32.1044L4.21768 31.8714L1.82085 27.7244L1.40744 27.9574ZM11.731 23.2978L11.1364 21.229L9.04619 21.8254L9.64075 23.8942L11.731 23.2978ZM6.60058 22.1073L7.39256 24.8471L9.25057 24.3113L8.45627 21.5714L6.60058 22.1073ZM4.55212 22.4008L5.509 25.7417L7.09528 25.2758L6.14072 21.9442L4.55212 22.4008ZM2.49438 22.6338L3.61847 26.5595L5.06308 26.1448L3.94827 22.2214L2.49438 22.6338ZM0.996358 22.981L2.15761 27.0651L3.147 26.7925L1.98575 22.7084L0.996358 22.981ZM0.0510953 22.981L1.37028 27.5846L1.83479 27.4518L0.513275 22.8482L0.0510953 22.981Z" fill="#FFB65E"/>
</g>
<defs>
<clipPath id="clip0">
<rect width="88" height="40" fill="white"/>
</clipPath>
</defs>
</svg>
